<svg width="57" height="50" viewBox="0 0 57 50" fill="none" xmlns="http://www.w3.org/2000/svg">
<path d="M39.0625 9.375V9.44336C38.5449 9.4043 38.0273 9.375 37.5 9.375H25C23.3887 9.375 21.8262 9.58008 20.332 9.96094C20.3223 9.76562 20.3125 9.57031 20.3125 9.375C20.3125 4.19922 24.5117 0 29.6875 0C34.8633 0 39.0625 4.19922 39.0625 9.375ZM37.5 12.5C37.8418 12.5 38.1836 12.5098 38.5156 12.5293C38.9258 12.5586 39.3359 12.5977 39.7461 12.6563C41.4648 10.6543 44.0234 9.375 46.875 9.375H47.998C49.0137 9.375 49.7559 10.332 49.5117 11.3184L48.1641 16.709C49.707 18.1543 50.9668 19.9121 51.8262 21.875H53.125C54.8535 21.875 56.25 23.2715 56.25 25V34.375C56.25 36.1035 54.8535 37.5 53.125 37.5H50C49.1113 38.6816 48.0566 39.7363 46.875 40.625V46.875C46.875 48.6035 45.4785 50 43.75 50H40.625C38.8965 50 37.5 48.6035 37.5 46.875V43.75H25V46.875C25 48.6035 23.6035 50 21.875 50H18.75C17.0215 50 15.625 48.6035 15.625 46.875V40.625C12.2168 38.0664 9.89258 34.1504 9.45312 29.6875H6.64062C2.96875 29.6875 0 26.7188 0 23.0469C0 19.375 2.96875 16.4062 6.64062 16.4062H7.03125C8.33008 16.4062 9.375 17.4512 9.375 18.75C9.375 20.0488 8.33008 21.0938 7.03125 21.0938H6.64062C5.56641 21.0938 4.6875 21.9727 4.6875 23.0469C4.6875 24.1211 5.56641 25 6.64062 25H9.6875C10.8691 19.1602 15.3223 14.502 21.0449 13.0078C22.3047 12.6758 23.6328 12.5 25 12.5H37.5ZM43.75 25.7812C43.75 25.1596 43.5031 24.5635 43.0635 24.124C42.624 23.6844 42.0279 23.4375 41.4062 23.4375C40.7846 23.4375 40.1885 23.6844 39.749 24.124C39.3094 24.5635 39.0625 25.1596 39.0625 25.7812C39.0625 26.4029 39.3094 26.999 39.749 27.4385C40.1885 27.8781 40.7846 28.125 41.4062 28.125C42.0279 28.125 42.624 27.8781 43.0635 27.4385C43.5031 26.999 43.75 26.4029 43.75 25.7812Z" fill="#E83F43"/>
</svg>
