<svg width="50" height="50" viewBox="0 0 50 50" fill="none" xmlns="http://www.w3.org/2000/svg">
<path d="M0 3.125C0 1.39648 1.39648 0 3.125 0H46.875C48.6035 0 50 1.39648 50 3.125C50 4.85352 48.6035 6.25 46.875 6.25V43.75C48.6035 43.75 50 45.1465 50 46.875C50 48.6035 48.6035 50 46.875 50H29.6875V45.3125C29.6875 42.7246 27.5879 40.625 25 40.625C22.4121 40.625 20.3125 42.7246 20.3125 45.3125V50H3.125C1.39648 50 0 48.6035 0 46.875C0 45.1465 1.39648 43.75 3.125 43.75V6.25C1.39648 6.25 0 4.85352 0 3.125ZM9.375 10.9375V14.0625C9.375 14.9219 10.0781 15.625 10.9375 15.625H14.0625C14.9219 15.625 15.625 14.9219 15.625 14.0625V10.9375C15.625 10.0781 14.9219 9.375 14.0625 9.375H10.9375C10.0781 9.375 9.375 10.0781 9.375 10.9375ZM23.4375 9.375C22.5781 9.375 21.875 10.0781 21.875 10.9375V14.0625C21.875 14.9219 22.5781 15.625 23.4375 15.625H26.5625C27.4219 15.625 28.125 14.9219 28.125 14.0625V10.9375C28.125 10.0781 27.4219 9.375 26.5625 9.375H23.4375ZM34.375 10.9375V14.0625C34.375 14.9219 35.0781 15.625 35.9375 15.625H39.0625C39.9219 15.625 40.625 14.9219 40.625 14.0625V10.9375C40.625 10.0781 39.9219 9.375 39.0625 9.375H35.9375C35.0781 9.375 34.375 10.0781 34.375 10.9375ZM10.9375 18.75C10.0781 18.75 9.375 19.4531 9.375 20.3125V23.4375C9.375 24.2969 10.0781 25 10.9375 25H14.0625C14.9219 25 15.625 24.2969 15.625 23.4375V20.3125C15.625 19.4531 14.9219 18.75 14.0625 18.75H10.9375ZM21.875 20.3125V23.4375C21.875 24.2969 22.5781 25 23.4375 25H26.5625C27.4219 25 28.125 24.2969 28.125 23.4375V20.3125C28.125 19.4531 27.4219 18.75 26.5625 18.75H23.4375C22.5781 18.75 21.875 19.4531 21.875 20.3125ZM35.9375 18.75C35.0781 18.75 34.375 19.4531 34.375 20.3125V23.4375C34.375 24.2969 35.0781 25 35.9375 25H39.0625C39.9219 25 40.625 24.2969 40.625 23.4375V20.3125C40.625 19.4531 39.9219 18.75 39.0625 18.75H35.9375ZM32.0312 37.5C33.3301 37.5 34.4043 36.4355 34.082 35.1758C33.0469 31.123 29.375 28.125 25 28.125C20.625 28.125 16.9434 31.123 15.918 35.1758C15.5957 36.4258 16.6797 37.5 17.9688 37.5H32.0312Z" fill="#E83F43"/>
</svg>
