<svg width="57" height="50" viewBox="0 0 57 50" fill="none" xmlns="http://www.w3.org/2000/svg">
<path d="M47.0996 18.75C50.4395 18.75 56.25 21.582 56.25 25C56.25 28.5156 50.4395 31.25 47.0996 31.25H35.7129L25.8984 48.4277C25.3418 49.4043 24.3066 50 23.1836 50H17.6953C16.6602 50 15.9082 49.0039 16.1914 48.0078L20.9766 31.25H10.9375L6.71875 36.875C6.42578 37.2656 5.95703 37.5 5.46875 37.5H1.36719C0.605469 37.5 0 36.8848 0 36.1328C0 36.0059 0.0195312 35.8789 0.0488281 35.752L3.125 25L0.0488281 14.248C0.00976562 14.1211 0 13.9941 0 13.8672C0 13.1055 0.615234 12.5 1.36719 12.5H5.46875C5.95703 12.5 6.42578 12.7344 6.71875 13.125L10.9375 18.75H20.9863L16.2012 1.99219C15.9082 0.996094 16.6602 0 17.6953 0H23.1836C24.3066 0 25.3418 0.605469 25.8984 1.57227L35.7129 18.75H47.0996Z" fill="#E83F43"/>
</svg>
